<svg width="200" height="140" viewBox="0 0 200 140" fill="none" xmlns="http://www.w3.org/2000/svg">
<rect y="6" width="200" height="127" fill="#FDBE00"/>
<path d="M42.4247 14.0151L37.353 12.059C36.6767 11.7982 35.9739 12.1098 35.7131 12.786L33.2354 19.2102C33.105 19.5483 33.0917 19.8345 33.2475 20.1859L33.8187 21.4744L31.0149 28.7438C27.4116 28.5193 24.1054 30.5457 22.7494 33.8097C22.4234 34.655 22.2664 35.5655 22.2785 36.5412C22.2387 37.3997 21.8088 38.0107 21.0408 38.4914C20.2209 38.8549 19.3358 39.3874 18.5545 40.1542C16.445 42.3508 15.6227 45.238 16.2314 48.1917C17.0478 51.6138 19.6598 54.6604 23.3271 55.9778C26.3702 57.1514 29.5315 57.0113 32.1084 55.8689C32.694 55.6093 33.2797 55.3496 33.8134 54.9729C36.2478 53.1929 37.5772 50.5012 37.489 47.457C37.425 46.3642 37.1267 45.3752 36.7113 44.4382C36.3997 43.7354 36.5567 42.8249 37.1556 42.2791C37.2727 42.2271 37.4551 42.0062 38.1192 41.2913C39.2519 40.3687 39.7216 38.8991 39.6189 37.4029C39.5162 35.9068 38.3074 34.7609 36.9936 34.6426C35.966 34.5375 35.134 33.9253 34.7186 32.9883L34.5628 32.6369L31.4982 40.5826C31.2374 41.2588 30.5346 41.5704 29.8584 41.3096C29.5203 41.1792 29.2474 40.8797 29.0916 40.5283L35.3511 24.2988C35.6892 24.4292 36.0274 24.5596 36.3787 24.4038L39.8927 22.846C40.2441 22.6902 40.4264 22.4692 40.5568 22.1311L43.0345 15.7069C43.4125 14.9787 43.1009 14.276 42.4247 14.0151ZM29.9805 49.8047C29.8501 50.1428 29.5507 50.4157 29.3164 50.5195C29.0822 50.6234 28.6788 50.662 28.3407 50.5316L23.269 48.5755C22.5928 48.3147 22.2812 47.6119 22.542 46.9357C22.8028 46.2595 23.5056 45.9479 24.1818 46.2087L29.2536 48.1648C29.9298 48.4256 30.2414 49.1284 29.9805 49.8047Z" fill="black" fill-opacity="0.1"/>
<path d="M177.079 107.503L174.716 102.607C174.401 101.954 173.675 101.701 173.022 102.016L166.821 105.009C166.495 105.166 166.29 105.366 166.163 105.729L165.698 107.06L158.681 110.446C156.206 107.818 152.408 107.035 149.187 108.489C148.371 108.883 147.633 109.44 146.975 110.16C146.359 110.759 145.627 110.911 144.738 110.737C143.891 110.441 142.881 110.224 141.787 110.25C138.746 110.41 136.171 111.954 134.595 114.525C132.851 117.58 132.673 121.589 134.448 125.058C135.865 127.996 138.268 130.055 140.929 130.984C141.534 131.195 142.139 131.406 142.786 131.496C145.779 131.863 148.59 130.808 150.607 128.527C151.308 127.685 151.767 126.76 152.105 125.792C152.358 125.066 153.095 124.509 153.905 124.521C154.026 124.563 154.31 124.526 155.284 124.459C156.741 124.56 158.089 123.809 159.037 122.648C159.985 121.486 159.887 119.823 159.009 118.838C158.332 118.059 158.143 117.043 158.481 116.076L158.608 115.713L150.938 119.414C150.285 119.729 149.559 119.476 149.244 118.823C149.087 118.497 149.092 118.091 149.219 117.729L164.885 110.168C165.042 110.495 165.2 110.821 165.563 110.948L169.192 112.214C169.555 112.341 169.839 112.304 170.165 112.147L176.367 109.154C177.14 108.881 177.394 108.156 177.079 107.503ZM143.524 125.105C143.197 125.262 142.792 125.256 142.55 125.172C142.308 125.087 141.988 124.84 141.83 124.513L139.468 119.618C139.153 118.965 139.406 118.239 140.059 117.924C140.711 117.609 141.437 117.863 141.752 118.515L144.115 123.411C144.43 124.064 144.177 124.789 143.524 125.105Z" fill="black" fill-opacity="0.1"/>
<path d="M154.172 9.49991L151.501 14.234C151.145 14.8652 151.351 15.6058 151.982 15.962L157.978 19.346C158.294 19.5241 158.575 19.5788 158.946 19.4756L160.303 19.0975L167.089 22.9268C166.344 26.4593 167.869 30.0247 170.901 31.8401C171.69 32.2853 172.568 32.5728 173.535 32.7025C174.379 32.8665 174.921 33.3805 175.285 34.2101C175.526 35.0741 175.924 36.0272 176.57 36.9115C178.437 39.3175 181.174 40.5502 184.185 40.3767C187.689 40.0657 191.083 37.9236 192.918 34.4863C194.521 31.6458 194.842 28.4976 194.085 25.7822C193.913 25.1651 193.742 24.5479 193.446 23.9652C192.038 21.2982 189.568 19.5922 186.544 19.2376C185.453 19.1423 184.431 19.2938 183.444 19.5688C182.703 19.7751 181.825 19.4876 181.372 18.8158C181.338 18.6924 181.145 18.4799 180.535 17.719C179.786 16.4645 178.4 15.7864 176.905 15.6708C175.41 15.5553 174.101 16.5849 173.793 17.8676C173.54 18.8691 172.813 19.6034 171.826 19.8784L171.456 19.9816L178.872 24.167C179.504 24.5233 179.71 25.2638 179.354 25.895C179.175 26.2106 178.84 26.4372 178.469 26.5403L163.32 17.9913C163.498 17.6757 163.676 17.3601 163.573 16.9898L162.542 13.2869C162.439 12.9167 162.247 12.7042 161.931 12.5261L155.935 9.14209C155.269 8.66245 154.529 8.8687 154.172 9.49991ZM187.776 27.0073C188.092 27.1854 188.319 27.5213 188.387 27.7681C188.456 28.015 188.436 28.4196 188.258 28.7353L185.586 33.4693C185.23 34.1005 184.489 34.3068 183.858 33.9506C183.227 33.5944 183.021 32.8538 183.377 32.2226L186.048 27.4885C186.405 26.8573 187.145 26.6511 187.776 27.0073Z" fill="black" fill-opacity="0.1"/>
<path d="M178.666 91.3072L177.738 97.9019C177.601 98.8782 178.266 99.7406 179.223 99.8292C180.18 99.9171 181.067 99.1983 181.204 98.2213L182.66 87.8715C183.703 86.8085 184.683 85.6835 185.593 84.5032C191.084 77.3792 193.103 69.73 190.103 67.4183L183.279 62.1588C181.987 61.1627 179.972 61.3252 177.66 62.3969L181.749 65.5484C182.496 66.124 182.61 67.2399 182.002 68.0281C181.395 68.8164 180.286 68.9905 179.54 68.4149L174.346 64.4118C172.582 65.7229 170.767 67.4366 169.047 69.4661L173.763 73.101C174.51 73.6765 174.624 74.7924 174.016 75.5807C173.409 76.369 172.301 76.543 171.554 75.9674L166.837 72.3322C165.313 74.5128 164.118 76.7046 163.299 78.7437L168.493 82.7468C169.24 83.3224 169.354 84.4382 168.746 85.2265C168.139 86.0147 167.031 86.1888 166.284 85.6132L162.195 82.4617C161.747 84.9703 162.103 86.9603 163.396 87.9564L170.22 93.216C172.018 94.6015 175.214 93.7425 178.666 91.3072ZM176.767 77.7011C181.343 71.7644 186.572 68.1233 188.447 69.5681C190.321 71.0129 188.132 76.9968 183.556 82.9335C183.476 83.0383 183.393 83.1373 183.313 83.2412L184.105 77.6113C184.243 76.6351 183.578 75.7727 182.621 75.684C181.615 75.5913 180.77 76.3644 180.639 77.2919L179.164 87.7711C176.02 90.6575 173.161 92.056 171.877 91.0661C170.002 89.6213 172.192 83.6373 176.767 77.7011Z" fill="black" fill-opacity="0.1"/>
<path d="M65.0623 83.8503L61.1625 89.2488C60.585 90.0478 60.7704 91.121 61.5753 91.6462C62.3805 92.1707 63.5002 91.9492 64.0781 91.1494L70.1983 82.677C71.617 82.224 73.0085 81.6866 74.3645 81.0678C82.5462 77.3318 87.9033 71.5104 86.3303 68.0657L82.7515 60.2283C82.0737 58.744 80.2159 57.9469 77.6711 57.8151L79.8155 62.5112C80.2072 63.3689 79.7869 64.4089 78.8816 64.8222C77.9763 65.2356 76.9151 64.8722 76.5235 64.0145L73.7996 58.0494C71.6282 58.3855 69.2228 59.0533 66.7538 60.0447L69.2272 65.4611C69.6188 66.3188 69.1985 67.3588 68.2932 67.7722C67.3879 68.1856 66.3268 67.8221 65.9351 66.9644L63.4616 61.5475C61.0954 62.764 59.0154 64.1443 57.3393 65.5652L60.0631 71.5303C60.4548 72.3879 60.0345 73.4279 59.1292 73.8413C58.2239 74.2547 57.1628 73.8912 56.7711 73.0335L54.6267 68.3374C53.0596 70.3468 52.4453 72.2728 53.1231 73.7571L56.7019 81.5944C57.6454 83.6594 60.8724 84.392 65.0623 83.8503ZM69.736 70.9318C76.5541 67.8185 82.8782 67.0402 83.8613 69.1931C84.8444 71.346 80.1145 75.6154 73.2964 78.7288C73.176 78.7837 73.0566 78.8326 72.9373 78.8871L76.2665 74.2785C76.8441 73.4795 76.6586 72.4063 75.8537 71.8811C75.0075 71.3294 73.8994 71.6186 73.351 72.3779L67.1532 80.9556C63.0254 82.0402 59.8445 81.9421 59.1709 80.467C58.1878 78.3141 62.9185 74.045 69.736 70.9318Z" fill="black" fill-opacity="0.1"/>
<path d="M25.0268 86.1114L27.9419 80.1236C28.3737 79.2373 28.0068 78.2119 27.1237 77.8326C26.2404 77.4541 25.1753 77.8646 24.7434 78.7517L20.1685 88.1491C18.8486 88.8389 17.5701 89.6072 16.3404 90.4496C8.92157 95.5347 4.64336 102.189 6.78439 105.313L11.6555 112.42C12.5781 113.765 14.5451 114.232 17.0748 113.925L14.156 109.666C13.623 108.889 13.8585 107.792 14.6794 107.229C15.5003 106.667 16.608 106.843 17.1411 107.62L20.8486 113.029C22.9301 112.325 25.1851 111.255 27.4472 109.854L24.0808 104.943C23.5477 104.165 23.7832 103.068 24.6041 102.506C25.425 101.943 26.5328 102.119 27.0658 102.896L30.4326 107.808C32.5548 106.204 34.367 104.487 35.7743 102.799L32.0668 97.3903C31.5337 96.6126 31.7692 95.516 32.5901 94.9533C33.411 94.3906 34.5188 94.5665 35.0519 95.3442L37.9707 99.6025C39.1696 97.3539 39.4441 95.3511 38.5216 94.0051L33.6504 86.8985C32.3664 85.0262 29.0615 84.8585 25.0268 86.1114ZM22.6403 99.6405C16.4579 103.878 10.3613 105.731 9.0232 103.778C7.68509 101.826 11.6119 96.8082 17.7942 92.5705C17.9034 92.4957 18.0126 92.4271 18.1208 92.3529L15.6322 97.4646C15.2004 98.3509 15.5673 99.3763 16.4504 99.7556C17.3788 100.154 18.4208 99.6786 18.8307 98.8365L23.4639 89.3221C27.3442 87.545 30.4948 87.0955 31.4116 88.4331C32.7497 90.3853 28.8222 95.4031 22.6403 99.6405Z" fill="black" fill-opacity="0.1"/>
<path d="M51.1566 105.213C54.5353 114.935 81.8719 132.301 87.1361 120.972C89.853 115.125 87.7689 110.676 83.4605 107.581L85.5838 102.066C84.9398 100.342 83.8419 99.5484 81.8895 100.265L78.4419 104.911C69.0423 101.189 55.7016 101.36 51.1566 105.213ZM58.4004 106.849C57.9627 105.933 58.2667 104.876 59.0783 104.489C59.8898 104.101 60.9032 104.528 61.3409 105.444C61.7786 106.36 61.4746 107.417 60.6631 107.805C59.8515 108.193 58.8381 107.765 58.4004 106.849ZM64.6378 107.001C64.2001 106.085 64.5041 105.028 65.3157 104.64C66.1272 104.253 67.1406 104.68 67.5783 105.596C68.016 106.512 67.712 107.569 66.9004 107.957C66.0889 108.345 65.0755 107.917 64.6378 107.001ZM70.3001 108.369C69.8624 107.453 70.1664 106.396 70.978 106.009C71.7895 105.621 72.8029 106.048 73.2406 106.964C73.6783 107.88 73.3743 108.937 72.5627 109.325C71.7512 109.713 70.7378 109.285 70.3001 108.369ZM85.0968 113.38C85.5346 114.296 85.2305 115.353 84.419 115.741C83.6074 116.129 82.5941 115.701 82.1564 114.785C81.7187 113.869 82.0227 112.812 82.8342 112.424C83.6458 112.037 84.6591 112.464 85.0968 113.38ZM76.0487 117.319C76.5694 118.408 76.2084 119.666 75.2418 120.127C74.2752 120.589 73.0703 120.08 72.5495 118.991C72.0288 117.901 72.3898 116.644 73.3564 116.182C74.323 115.72 75.5279 116.229 76.0487 117.319Z" fill="black" fill-opacity="0.1"/>
<path d="M146.136 61.3702C151.73 52.7299 148.629 20.4926 136.457 23.3021C130.174 24.7525 127.945 29.1307 128.152 34.4311L122.496 36.1456C121.532 37.713 121.581 39.0668 123.346 40.1665L129.13 40.031C131.97 49.7337 140.303 60.1529 146.136 61.3702ZM142.975 54.6501C142.522 55.5583 141.501 55.9681 140.696 55.5662C139.892 55.1643 139.606 54.1022 140.06 53.1939C140.514 52.2857 141.534 51.8759 142.339 52.2778C143.144 52.6797 143.429 53.7419 142.975 54.6501ZM139.262 49.6362C138.808 50.5445 137.788 50.9543 136.983 50.5524C136.178 50.1505 135.893 49.0883 136.347 48.1801C136.8 47.2718 137.821 46.8621 138.626 47.264C139.43 47.6658 139.716 48.728 139.262 49.6362ZM136.862 44.3286C136.408 45.2368 135.387 45.6466 134.583 45.2447C133.778 44.8428 133.492 43.7806 133.946 42.8724C134.4 41.9642 135.42 41.5544 136.225 41.9563C137.03 42.3582 137.315 43.4203 136.862 44.3286ZM131.721 29.5765C132.175 28.6683 133.195 28.2585 134 28.6604C134.804 29.0623 135.09 30.1245 134.636 31.0327C134.183 31.941 133.162 32.3507 132.357 31.9488C131.553 31.5469 131.267 30.4848 131.721 29.5765ZM140.389 34.2939C140.928 33.2134 142.142 32.7256 143.1 33.2043C144.059 33.683 144.398 34.9462 143.858 36.0267C143.318 37.1072 142.105 37.595 141.146 37.1164C140.188 36.6377 139.849 35.3744 140.389 34.2939Z" fill="black" fill-opacity="0.1"/>
<path d="M83.0907 17.2186L70.0728 27.1257C69.796 26.4524 69.454 25.7701 69.057 25.2485C68.1486 24.0549 66.8014 23.1367 65.3639 22.6398C63.9264 22.1429 62.3332 22.296 61.0656 23.2607C59.7227 24.2827 59.2267 25.7214 59.3217 27.2382C59.4166 28.755 59.9805 30.2711 60.8889 31.4648C61.741 32.5844 63.0793 33.5677 64.5169 34.0646C65.9544 34.5616 67.4442 34.4287 68.7871 33.4067L82.44 23.0163L94.3436 31.923L85.3542 38.7642C85.1055 38.1278 84.6984 37.4368 84.2723 36.877C83.3921 35.7203 82.0919 34.7079 80.6532 34.2119C79.2145 33.7159 77.6507 33.9051 76.383 34.8699C75.0402 35.8918 74.4781 37.3205 74.611 38.8103C74.7057 40.3292 75.261 41.9084 76.1412 43.0651C76.9933 44.1847 78.3968 45.1769 79.8343 45.6738C81.263 46.2359 82.7898 46.0748 84.1327 45.0529L101.328 31.9663C102.15 31.3413 102.282 30.3563 101.658 29.5363C101.601 29.4611 101.111 29.127 100.386 28.5609C98.84 27.3813 96.5029 25.6256 93.8264 23.6569C92.4972 22.6063 91.2434 21.734 90.0656 20.8056C88.8781 19.9413 87.8039 19.2282 86.9275 18.5399C85.9848 17.8436 85.4095 17.3973 85.1657 17.2304C84.5253 16.7753 83.6899 16.7626 83.0931 17.2168L83.0907 17.2186Z" fill="black" fill-opacity="0.1"/>
<path d="M111.426 83.4373L121.377 96.4218C120.705 96.7009 120.024 97.0452 119.504 97.4439C118.313 98.3563 117.399 99.7066 116.907 101.146C116.415 102.585 116.574 104.178 117.543 105.442C118.569 106.781 120.01 107.273 121.526 107.172C123.042 107.072 124.557 106.503 125.747 105.591C126.864 104.735 127.843 103.394 128.335 101.954C128.827 100.515 128.689 99.0258 127.663 97.6864L117.226 84.0685L126.093 72.135L132.964 81.1013C132.329 81.3521 131.639 81.7616 131.081 82.1895C129.927 83.0736 128.919 84.3772 128.428 85.8176C127.937 87.258 128.131 88.8211 129.1 90.0855C130.127 91.4249 131.557 91.9822 133.047 91.8443C134.565 91.7445 136.142 91.1839 137.296 90.2997C138.413 89.4439 139.4 88.037 139.892 86.5978C140.45 85.1672 140.283 83.641 139.257 82.3016L126.113 65.1501C125.485 64.331 124.499 64.2017 123.681 64.8286C123.606 64.8861 123.274 65.3771 122.71 66.1039C121.536 67.6539 119.788 69.9969 117.828 72.68C116.782 74.0127 115.914 75.2695 114.99 76.4504C114.13 77.6408 113.42 78.7174 112.735 79.5961C112.042 80.5412 111.597 81.1179 111.431 81.3624C110.978 82.0043 110.968 82.8396 111.425 83.4349L111.426 83.4373Z" fill="black" fill-opacity="0.1"/>
</svg>
