<svg width="55" height="55" viewBox="0 0 55 55" fill="none" xmlns="http://www.w3.org/2000/svg">
<path d="M50.4688 31.1352C51.333 31.0679 52 30.3456 52 29.4798V25.5201C52 24.6527 51.333 23.932 50.4688 23.8632L45.2215 23.4535C44.8881 23.428 44.601 23.2187 44.4724 22.9091L42.7467 18.7445C42.6181 18.4364 42.672 18.0836 42.8903 17.8308L46.3117 13.8292C46.8739 13.1697 46.8381 12.1887 46.2235 11.5757L43.4241 8.77635C42.8111 8.16328 41.8286 8.12433 41.1706 8.68812L37.169 12.1095C36.9162 12.3264 36.5618 12.3817 36.2553 12.2546L32.0893 10.5274C31.7812 10.4003 31.5703 10.1087 31.5435 9.77827L31.1352 4.53249C31.0679 3.66696 30.3472 3 29.4799 3H25.5202C24.6528 3 23.9321 3.66696 23.8648 4.53278L23.4551 9.77856C23.4297 10.1106 23.2188 10.4006 22.9107 10.5277L18.7447 12.2549C18.4366 12.382 18.0838 12.3267 17.8295 12.1098L13.8294 8.6884C13.1714 8.12462 12.1905 8.16357 11.5759 8.77664L8.77655 11.576C8.16347 12.189 8.12605 13.17 8.68831 13.8295L12.1097 17.8311C12.325 18.0839 12.3819 18.4367 12.2532 18.7448L10.5276 22.9094C10.402 23.2189 10.1105 23.4283 9.7799 23.4538L4.53125 23.8633C3.66696 23.9321 3 24.6528 3 25.5202V29.4784C3 30.3457 3.66696 31.0679 4.53125 31.1353L9.77999 31.5436C10.1105 31.5704 10.4021 31.7813 10.5277 32.0894L12.2533 36.254C12.382 36.562 12.3251 36.9164 12.1098 37.1692L8.6884 41.1708C8.12615 41.8288 8.16357 42.8097 8.77664 43.4243L11.576 46.2237C12.1906 46.8367 13.1715 46.8741 13.8295 46.3104L17.8296 42.889C18.0838 42.6736 18.4367 42.6168 18.7448 42.7454L22.9108 44.471C23.2189 44.5997 23.4297 44.8882 23.4552 45.2217L23.8649 50.4675C23.9322 51.3318 24.6529 52.0003 25.5203 52.0003H29.48C30.3474 52.0003 31.0681 51.3319 31.1354 50.4675L31.5436 45.2217C31.5705 44.8883 31.7814 44.5997 32.0894 44.471L36.2555 42.7454C36.562 42.6168 36.918 42.6736 37.1692 42.889L41.1708 46.3104C41.8288 46.8741 42.8113 46.8367 43.4243 46.2237L46.2236 43.4243C46.8383 42.8097 46.8741 41.8288 46.3119 41.1708L42.8905 37.1692C42.6752 36.9164 42.6183 36.562 42.7469 36.254L44.4726 32.0894C44.6012 31.7813 44.8883 31.5704 45.2217 31.5436L50.4688 31.1352ZM27.5 35.7799C25.2884 35.7799 23.2083 34.9185 21.6441 33.3559C20.0799 31.7903 19.2186 29.7117 19.2186 27.4986C19.2186 25.287 20.0799 23.2069 21.6441 21.6442C23.2083 20.0786 25.2883 19.2187 27.5 19.2187C29.7131 19.2187 31.7917 20.0785 33.3559 21.6442C34.9201 23.2069 35.7814 25.287 35.7814 27.4986C35.7814 29.7117 34.9201 31.7903 33.3559 33.3559C31.7917 34.9185 29.7131 35.7799 27.5 35.7799Z" fill="black"/>
</svg>
