<svg width="49" height="49" viewBox="0 0 49 49" fill="none" xmlns="http://www.w3.org/2000/svg">
<g filter="url(#filter0_d_126_2)">
<circle cx="24.5" cy="20.5" r="20.5" fill="white"/>
</g>
<g clip-path="url(#clip0_126_2)">
<path fill-rule="evenodd" clip-rule="evenodd" d="M14.5303 20.5C14.5303 19.3885 14.7149 18.323 15.0444 17.3235L9.27752 12.9198C8.15359 15.2018 7.52036 17.7731 7.52036 20.5C7.52036 23.2245 8.15281 25.7943 9.27518 28.0748L15.0389 23.6624C14.7126 22.6677 14.5303 21.606 14.5303 20.5Z" fill="#FBBC05"/>
<path fill-rule="evenodd" clip-rule="evenodd" d="M24.6558 10.3889C27.0703 10.3889 29.2512 11.2444 30.9647 12.6444L35.9496 7.66666C32.9119 5.02222 29.0175 3.38889 24.6558 3.38889C17.8842 3.38889 12.0644 7.26144 9.27752 12.9198L15.0444 17.3236C16.3731 13.29 20.1608 10.3889 24.6558 10.3889Z" fill="#EB4335"/>
<path fill-rule="evenodd" clip-rule="evenodd" d="M24.6558 30.6111C20.1608 30.6111 16.3731 27.71 15.0444 23.6765L9.27752 28.0795C12.0644 33.7386 17.8842 37.6111 24.6558 37.6111C28.8353 37.6111 32.8255 36.1271 35.8203 33.3466L30.3463 29.1147C28.8018 30.0877 26.8569 30.6111 24.6558 30.6111Z" fill="#34A853"/>
<path fill-rule="evenodd" clip-rule="evenodd" d="M41.0123 20.5C41.0123 19.4889 40.8565 18.4 40.6229 17.3889H24.6558V24H33.8466C33.387 26.254 32.1362 27.9869 30.3463 29.1147L35.8203 33.3466C38.9662 30.4268 41.0123 26.0774 41.0123 20.5Z" fill="#4285F4"/>
</g>
<defs>
<filter id="filter0_d_126_2" x="0" y="0" width="49" height="49" filterUnits="userSpaceOnUse" color-interpolation-filters="sRGB">
<feFlood flood-opacity="0" result="BackgroundImageFix"/>
<feColorMatrix in="SourceAlpha" type="matrix" values="0 0 0 0 0 0 0 0 0 0 0 0 0 0 0 0 0 0 127 0" result="hardAlpha"/>
<feOffset dy="4"/>
<feGaussianBlur stdDeviation="2"/>
<feComposite in2="hardAlpha" operator="out"/>
<feColorMatrix type="matrix" values="0 0 0 0 0 0 0 0 0 0 0 0 0 0 0 0 0 0 0.25 0"/>
<feBlend mode="normal" in2="BackgroundImageFix" result="effect1_dropShadow_126_2"/>
<feBlend mode="normal" in="SourceGraphic" in2="effect1_dropShadow_126_2" result="shape"/>
</filter>
<clipPath id="clip0_126_2">
<rect width="35" height="35" fill="white" transform="translate(7 3)"/>
</clipPath>
</defs>
</svg>
