<svg width="47" height="47" viewBox="0 0 47 47" fill="none" xmlns="http://www.w3.org/2000/svg">
<path d="M46.3156 5.89062L41.7219 1.29687C41.1094 0.684369 40.1906 0.684369 39.5781 1.29687L33.7594 7.11562C33.4531 7.42187 33.3 7.72812 33.3 8.18749V9.87187L26.7156 16.4562C22.8875 14.4656 18.2938 15.0781 15.2313 17.9875C14.4656 18.7531 13.8531 19.6719 13.3937 20.7437C12.9344 21.6625 12.1687 22.1219 11.0969 22.275C10.025 22.275 8.8 22.4281 7.575 22.8875C4.20625 24.2656 1.90937 27.0219 1.14375 30.5437C0.378123 34.6781 1.75625 39.2719 5.125 42.4875C7.88125 45.2437 11.4031 46.6219 14.7719 46.6219C15.5375 46.6219 16.3031 46.6219 17.0688 46.4687C20.5906 45.7031 23.3469 43.4062 24.725 40.0375C25.1844 38.8125 25.3375 37.5875 25.3375 36.3625C25.3375 35.4437 25.95 34.525 26.8687 34.2187C27.0219 34.2187 27.3281 34.0656 28.4 33.6062C30.0844 33.1469 31.3094 31.7687 31.9219 30.0844C32.5344 28.4 31.7687 26.5625 30.3906 25.7969C29.3188 25.1844 28.7062 24.1125 28.7062 22.8875V22.4281L21.5094 29.625C20.8969 30.2375 19.9781 30.2375 19.3656 29.625C19.0594 29.3187 18.9062 28.8594 18.9062 28.4L33.6063 13.7C33.9125 14.0062 34.2188 14.3125 34.6781 14.3125H39.2719C39.7313 14.3125 40.0375 14.1594 40.3438 13.8531L46.1625 8.03437C46.9281 7.42187 46.9281 6.50312 46.3156 5.89062ZM15.3844 38.9656C15.0781 39.2719 14.6187 39.425 14.3125 39.425C14.0062 39.425 13.5469 39.2719 13.2406 38.9656L8.64687 34.3719C8.03437 33.7594 8.03437 32.8406 8.64687 32.2281C9.25937 31.6156 10.1781 31.6156 10.7906 32.2281L15.3844 36.8219C15.9969 37.4344 15.9969 38.3531 15.3844 38.9656Z" fill="black"/>
</svg>
