<svg width="69" height="70" viewBox="0 0 69 70" fill="none" xmlns="http://www.w3.org/2000/svg">
<path d="M66.6751 10.1705L68.2265 8.61913C69.2553 7.59032 69.2553 5.91589 68.2265 4.88708L64.3621 1.02265C63.8674 0.527986 63.1962 0.246979 62.4949 0.246979C61.7935 0.246979 61.1223 0.525663 60.6277 1.02033L59.074 2.57167L57.5575 1.05516C56.9281 0.425801 55.9063 0.425801 55.2769 1.05516C54.6476 1.68453 54.6476 2.70405 55.2769 3.33341L56.7958 4.84992L56.0363 5.61166L54.5198 4.09283C53.8905 3.46346 52.8686 3.46346 52.2416 4.09283C51.6122 4.72219 51.6122 5.74403 52.2416 6.3734L53.7581 7.88991L52.9964 8.65164L51.4799 7.13514C50.8505 6.50577 49.831 6.50577 49.2016 7.13514C48.5722 7.7645 48.5722 8.78402 49.2016 9.41338L50.7181 10.9299L39.2479 22.4024C33.7462 19.4809 27.3829 19.8362 23.4279 23.7889C22.6964 24.5204 22.0879 25.3379 21.5979 26.2181C20.5342 28.141 18.5207 29.3533 16.3191 29.3928C11.9577 29.474 7.83551 31.0254 4.73979 34.1188C-2.38525 41.2438 -1.35644 53.8218 7.03429 62.2125C15.425 70.6032 28.0053 71.6321 35.1303 64.507C38.2237 61.4136 39.7774 57.2914 39.8564 52.9277C39.8982 50.7307 41.1128 48.7102 43.0311 47.6489C43.9112 47.1612 44.7264 46.5528 45.4626 45.8212C49.4129 41.8685 49.7683 35.5006 46.8467 30.0012L58.3192 18.531L59.8357 20.0498C60.1539 20.3634 60.5626 20.5213 60.976 20.5213C61.3894 20.5213 61.7982 20.3634 62.1163 20.0498C62.7457 19.4205 62.7457 18.3986 62.1163 17.7693L60.5975 16.2528L61.3546 15.4934L62.8734 17.0122C63.1916 17.3257 63.6026 17.4836 64.0137 17.4836C64.4271 17.4836 64.8358 17.3257 65.154 17.0122C65.7833 16.3828 65.7833 15.361 65.154 14.7316L63.6351 13.2151L64.3946 12.4534L65.9157 13.9745C66.2292 14.288 66.6426 14.446 67.0537 14.446C67.4647 14.446 67.8758 14.288 68.1916 13.9745C68.821 13.3452 68.821 12.3233 68.1916 11.694L66.6751 10.1705ZM36.6631 43.2202C33.7253 46.158 28.9645 46.158 26.0267 43.2202C23.0889 40.2824 23.0889 35.5215 26.0267 32.5837C28.9645 29.6459 33.7276 29.6459 36.6631 32.5837C39.6009 35.5215 39.6032 40.2824 36.6631 43.2202Z" fill="black"/>
</svg>
