<svg width="134" height="150" viewBox="0 0 134 150" fill="none" xmlns="http://www.w3.org/2000/svg">
<g clip-path="url(#clip0_39_50)">
<path d="M66.7472 103.378V45.8615H61.4377H71.551" stroke="white" stroke-width="4"/>
<path d="M41.717 103.378H91.5245" stroke="white" stroke-width="4"/>
<path d="M40.4528 103.378H91.5245" stroke="black" stroke-width="4"/>
<path d="M35.649 138.851L52.5887 36.4865H80.9057L97.5924 138.851H35.649Z" stroke="white" stroke-width="4"/>
<path d="M44.2453 138.851C68.4356 138.851 73.4022 138.851 97.5924 138.851C91.076 98.8753 87.6749 77.7294 81.1585 37.7534" stroke="black" stroke-width="4"/>
<path d="M35.3962 140.118V148.226H42.7283V140.118" stroke="white" stroke-width="4"/>
<path d="M98.0981 140.118V147.973H91.5245V140.118" stroke="black" stroke-width="4"/>
<path d="M61.9434 55.2365H71.0453" stroke="white" stroke-width="4"/>
<path d="M61.6906 64.6115H71.0453" stroke="white" stroke-width="4"/>
<path d="M61.9434 74.2399H71.0453" stroke="white" stroke-width="4"/>
<path d="M61.9434 84.1216H70.7924" stroke="white" stroke-width="4"/>
<path d="M61.9434 93.75H70.7924" stroke="white" stroke-width="4"/>
<path d="M68.517 102.618L92.0302 59.7076M99.6151 45.6081L97.3396 49.8379" stroke="black" stroke-width="4"/>
<path d="M100.626 54.7297C100.626 57.7586 98.0733 60.304 94.8113 60.304C91.5493 60.304 88.9962 57.7586 88.9962 54.7297C88.9962 51.7008 91.5493 49.1554 94.8113 49.1554C98.0733 49.1554 100.626 51.7008 100.626 54.7297Z" stroke="black" stroke-width="4"/>
<path d="M35.943 103.378C29.9744 98.1628 25.3249 91.4701 22.5622 83.8682M98.0572 103.378C107.997 94.6921 114.279 81.9071 114.279 67.652C114.279 53.1167 107.749 40.1105 97.4676 31.4189M20.8607 78.0405C20.1145 74.6975 19.7208 71.2206 19.7208 67.652C19.7208 41.4838 40.8884 20.2703 67 20.2703C76.4063 20.2703 85.1709 23.0231 92.5359 27.7688" stroke="white" stroke-width="4" stroke-linecap="round"/>
<path d="M20.8607 78.0405C20.1145 74.6975 19.7208 71.2206 19.7208 67.652C19.7208 41.4838 40.8884 20.2703 67 20.2703C76.4063 20.2703 85.1709 23.0231 92.5359 27.7688" stroke="black" stroke-width="4" stroke-linecap="round"/>
<path d="M33.8769 112.247C20.0769 102.051 11.1245 85.6454 11.1245 67.1453C11.1245 61.3206 12.012 55.7032 13.6588 50.4223M100.123 112.247C111.869 103.568 120.103 90.3917 122.294 75.2534M15.6207 45.1014C24.1612 25.1351 43.9507 11.1487 67 11.1487C97.8589 11.1487 122.875 36.2192 122.875 67.1453C122.875 68.3367 122.839 69.5194 122.765 70.6926" stroke="white" stroke-width="4" stroke-linecap="round"/>
<path d="M15.6207 45.1014C24.1612 25.1351 43.9507 11.1487 67 11.1487C97.8589 11.1487 122.875 36.2192 122.875 67.1453C122.875 68.3367 122.839 69.5194 122.765 70.6926" stroke="black" stroke-width="4" stroke-linecap="round"/>
<path d="M31.1462 122.128C13.3024 110.399 1.51697 90.1687 1.51697 67.1777C1.51697 50.3549 7.82715 35.0096 18.2038 23.3918M102.854 122.128C120.698 110.399 132.483 90.1687 132.483 67.1777C132.483 58.7645 130.905 50.7208 128.029 43.3277M21.7026 19.7635C33.4648 8.46344 49.4237 1.52026 67 1.52026C92.8989 1.52026 115.286 16.5956 125.909 38.472" stroke="white" stroke-width="4" stroke-linecap="round"/>
<path d="M21.7026 19.7635C33.4648 8.46344 49.4237 1.52026 67 1.52026C92.8989 1.52026 115.286 16.5956 125.909 38.472" stroke="black" stroke-width="4" stroke-linecap="round"/>
</g>
<defs>
<clipPath id="clip0_39_50">
<rect width="134" height="150" fill="white"/>
</clipPath>
</defs>
</svg>
