<svg width="47" height="44" viewBox="0 0 47 44" fill="none" xmlns="http://www.w3.org/2000/svg">
<path d="M13.8721 8.85052L12.84 30.4703C11.8447 30.1815 10.7798 29.9515 9.84128 29.9133C7.69371 29.826 5.447 30.4179 3.58127 31.4582C1.71554 32.4986 0.422773 34.2475 0.322274 36.3528C0.215814 38.583 1.34503 40.3053 3.10225 41.493C4.85947 42.6807 7.04614 43.3914 9.19372 43.4787C11.2081 43.5607 13.5185 43.0329 15.3842 41.9926C17.2499 40.9522 18.4702 39.3255 18.5766 37.0953L19.659 14.4209L40.3848 9.86338L39.6722 24.7926C38.7434 24.5066 37.609 24.3353 36.6017 24.2943C34.5208 24.2097 32.2134 24.674 30.3476 25.7163C28.4818 26.7587 27.2557 28.5083 27.1552 30.6136C27.0487 32.8438 28.1063 34.6247 29.8686 35.7511C31.6279 36.9409 33.8761 37.7136 35.9571 37.7983C37.9715 37.8802 40.3514 37.2937 42.2171 36.2534C44.1465 35.2772 45.3697 33.589 45.4761 31.3588L46.8394 2.80072C46.9045 1.43685 45.9416 0.468129 44.4662 0.408119C44.3309 0.402615 43.5137 0.617655 42.2254 0.875106C39.5084 1.44785 35.4315 2.33671 30.8087 3.39007C28.4327 3.85155 26.3221 4.38739 24.2196 4.79843C22.1786 5.27354 20.4081 5.76164 18.8463 6.06954C17.2149 6.43817 16.1958 6.64499 15.7884 6.75157C14.6998 7.01714 13.9196 7.85537 13.8723 8.84656L13.8721 8.85052Z" fill="black"/>
</svg>
