<svg width="64" height="70" viewBox="0 0 64 70" fill="none" xmlns="http://www.w3.org/2000/svg">
<path fill-rule="evenodd" clip-rule="evenodd" d="M60 0C58.068 0 56.5 1.568 56.5 3.5V7H63.5V3.5C63.5 1.568 61.932 0 60 0ZM56.5 66.5C56.5 68.432 58.068 70 60 70C61.932 70 63.5 68.432 63.5 66.5V14H56.5V66.5ZM42.5 10.5C42.5 8.568 40.932 7 39 7H18C16.068 7 14.5 8.568 14.5 10.5V59.5C14.5 61.432 16.068 63 18 63H39C40.932 63 42.5 61.432 42.5 59.5V10.5ZM49.5 7V63C49.5 66.864 46.3675 70 42.5 70H14.5C10.6325 70 7.5 66.864 7.5 63H4C2.068 63 0.5 61.432 0.5 59.5C0.5 57.568 2.068 56 4 56H7.5V49H4C2.068 49 0.5 47.432 0.5 45.5C0.5 43.568 2.068 42 4 42H7.5V35H4C2.068 35 0.5 33.432 0.5 31.5C0.5 29.568 2.068 28 4 28H7.5V21H4C2.068 21 0.5 19.432 0.5 17.5C0.5 15.568 2.068 14 4 14H7.5V7C7.5 3.136 10.6325 0 14.5 0H42.5C46.3675 0 49.5 3.136 49.5 7ZM35.5 17.5V52.5C35.5 54.432 33.932 56 32 56H25C23.068 56 21.5 54.432 21.5 52.5V17.5C21.5 15.568 23.068 14 25 14H32C33.932 14 35.5 15.568 35.5 17.5Z" fill="black"/>
</svg>
