<svg width="56" height="55" viewBox="0 0 56 55" fill="none" xmlns="http://www.w3.org/2000/svg">
<path fill-rule="evenodd" clip-rule="evenodd" d="M33.3962 51.7383C33.3985 51.7361 33.3985 51.7361 33.3985 51.7338C38.8955 43.9553 48.9097 29.1521 53.3059 18.8455C54.5277 15.9862 55.3202 13.4399 55.5508 11.4324C55.7518 9.65569 55.5143 8.20323 54.9502 7.13672C54.1304 5.5929 52.3056 4.14729 49.6085 3.06479C44.582 1.05281 36.1984 0 27.8101 0C19.4219 0 11.0383 1.05281 6.01176 3.06479C3.31466 4.14729 1.48994 5.5929 0.672358 7.13672C0.105988 8.20323 -0.131522 9.65569 0.071732 11.4324C0.300107 13.4399 1.09257 15.9862 2.31437 18.8455C6.71059 29.1521 16.7248 43.9553 22.2195 51.7361C22.2218 51.7361 22.2218 51.7383 22.2218 51.7406C23.5076 53.5494 25.5903 54.625 27.8101 54.625C30.03 54.625 32.1127 53.5494 33.3962 51.7383ZM29.6714 49.096C29.2421 49.699 28.5501 50.0575 27.8101 50.0575C27.0702 50.0575 26.376 49.699 25.9489 49.096C20.5912 41.5117 10.8008 27.099 6.51419 17.055C5.65778 15.0453 5.02518 13.2298 4.73058 11.6996C4.53418 10.6742 4.40629 9.84296 4.70774 9.27659C4.95667 8.80385 5.48193 8.4316 6.13965 8.0525C7.1034 7.49983 8.33434 7.02481 9.75939 6.60917C14.4662 5.23664 21.1393 4.5675 27.8101 4.5675C34.481 4.5675 41.1541 5.23664 45.8609 6.60917C47.286 7.02481 48.5169 7.49983 49.4806 8.0525C50.1384 8.4316 50.6636 8.80385 50.9148 9.27659C51.214 9.84296 51.0861 10.6742 50.8897 11.6996C50.5951 13.2298 49.9625 15.0453 49.1061 17.055C44.8195 27.099 35.0291 41.5117 29.6714 49.096Z" fill="black"/>
<path fill-rule="evenodd" clip-rule="evenodd" d="M27.7896 11.3183C27.7874 11.3594 27.7874 11.4028 27.7874 11.4439V21.9514C27.2484 21.8007 26.6797 21.7207 26.0928 21.7207C22.6261 21.7207 19.8125 24.5343 19.8125 28.001C19.8125 31.4655 22.6261 34.2814 26.0928 34.2814C29.5595 34.2814 32.3731 31.4655 32.3731 28.001C32.3731 27.8343 32.3549 16.9591 32.3549 16.9591L35.326 19.9303C36.2167 20.8209 37.6646 20.8209 38.5552 19.9303C39.4459 19.0373 39.4459 17.5917 38.5552 16.7011L31.6857 9.82925C30.795 8.93859 29.3472 8.93859 28.4565 9.82925C28.0408 10.2426 27.8193 10.777 27.7896 11.3183ZM26.0928 26.2882C27.0383 26.2882 27.8056 27.0556 27.8056 28.001C27.8056 28.9465 27.0383 29.7139 26.0928 29.7139C25.1473 29.7139 24.38 28.9465 24.38 28.001C24.38 27.0556 25.1473 26.2882 26.0928 26.2882Z" fill="black"/>
</svg>
