<svg width="44" height="52" viewBox="0 0 44 52" fill="none" xmlns="http://www.w3.org/2000/svg">
<path d="M34.4322 0H17.1549H15.8168L14.8708 0.945953L1.79068 14.026L0.844727 14.9719V16.3101V43.2763C0.844727 48.0864 4.75773 52.0001 9.56854 52.0001H34.4322C39.2422 52.0001 43.1552 48.0864 43.1552 43.2763V8.72371C43.1553 3.913 39.2422 0 34.4322 0ZM39.9251 43.2762C39.9251 46.3106 37.4658 48.7699 34.4322 48.7699H9.56854C6.53406 48.7699 4.07482 46.3106 4.07482 43.2762V16.31H12.5773C15.1047 16.31 17.1548 14.2606 17.1548 11.7326V3.23009H34.4322C37.4658 3.23009 39.9251 5.68933 39.9251 8.72371V43.2762Z" fill="black"/>
<path d="M25.3099 22.6852C23.0115 21.5754 21.0697 19.07 21.0697 19.07V20.7386V32.9428C20.3524 32.679 19.5039 32.6011 18.6292 32.7697C16.5295 33.1732 15.0839 34.8297 15.3994 36.4678C15.715 38.1067 17.6726 39.1073 19.7719 38.7023C21.6362 38.3435 22.9818 36.9975 23.0396 35.5524H23.051V25.048C29.0814 25.7847 28.0908 30.0531 27.6738 31.3046C31.1492 27.4115 29.3416 24.631 25.3099 22.6852Z" fill="black"/>
</svg>
