<svg width="68" height="75" viewBox="0 0 68 75" fill="none" xmlns="http://www.w3.org/2000/svg">
<path d="M46.7461 16.7608L31.5013 32.4974C31.4372 32.5636 31.3694 32.6227 31.2985 32.6744C31.2276 32.726 31.1537 32.7699 31.0772 32.8056C31.0389 32.8234 31.0001 32.8393 30.9606 32.8528C30.8424 32.8937 30.7193 32.9153 30.5933 32.9153C30.5093 32.9153 30.4248 32.9065 30.341 32.8889C30.2154 32.8626 30.0919 32.8169 29.9758 32.753C29.8596 32.6892 29.7509 32.6071 29.6547 32.5077C29.3984 32.2431 29.2679 31.8938 29.2652 31.5444C29.2627 31.195 29.3881 30.8456 29.6445 30.5811L44.8793 14.8552C41.1087 11.9347 35.7352 12.2427 32.3052 15.7833L29.1288 19.0622C30.3023 20.2736 30.1973 22.2682 28.9037 23.3414L24.4256 27.0559C23.0808 28.1715 21.0875 27.7716 20.2451 26.2175L20.144 26.0311C19.0758 24.0599 16.4786 23.6885 14.9316 25.2855L10.0881 30.2857L6.15808 32.6758C4.6271 33.5877 3.44529 34.9106 2.50507 36.6182C-0.609477 42.2741 0.440566 49.4041 4.89696 54.0046L8.89111 58.1276C13.3474 62.7276 20.2541 63.8112 25.7333 60.597C27.3882 59.6266 28.6702 58.4069 29.5536 56.8262L31.869 52.7694L36.7128 47.7693C38.26 46.1723 37.9001 43.4914 35.9906 42.3888L35.81 42.2844C34.3043 41.4151 33.9172 39.3573 34.9978 37.9692L38.5962 33.3467C39.6357 32.0114 41.5682 31.9031 42.7417 33.1143L45.9181 29.8354C49.3765 26.2659 49.6506 20.6572 46.7461 16.7608ZM22.5896 47.0724C22.5682 47.4137 22.4227 47.732 22.1852 47.9657C22.1503 48.0004 22.1137 48.0337 22.0744 48.0647L11.3176 56.6131C11.0802 56.8015 10.7862 56.9069 10.5052 56.9069C10.1676 56.9069 9.807 56.7977 9.55247 56.5349L6.44017 53.3222C5.974 52.841 5.9463 52.0564 6.34834 51.5168L14.6438 40.3985C14.6743 40.3576 14.7071 40.3191 14.7414 40.2827C14.9678 40.0371 15.2763 39.8865 15.6073 39.8645C15.9821 39.8393 16.3532 39.9828 16.6204 40.2586L22.208 46.0264C22.4749 46.3023 22.6141 46.6834 22.5896 47.0724ZM23.574 34.7558L19.361 36.0984C19.2322 36.1395 19.1017 36.1589 18.9735 36.1589C18.4128 36.1589 17.8937 35.7853 17.7198 35.2033C17.506 34.4883 17.8942 33.7297 18.5869 33.509L22.7996 32.1664C23.4921 31.9461 24.2271 32.3463 24.4409 33.0615C24.6548 33.7764 24.2669 34.535 23.574 34.7558ZM30.0474 39.6476L28.7469 43.9963C28.5729 44.5783 28.0537 44.9519 27.4932 44.9519C27.3647 44.9519 27.2343 44.9325 27.1055 44.8914C26.4129 44.6706 26.0247 43.912 26.2384 43.1971L27.5389 38.8482C27.7526 38.1331 28.4881 37.7329 29.1803 37.9531C29.873 38.1741 30.2611 38.9327 30.0474 39.6476Z" fill="black"/>
<path d="M60.666 1.38859C60.606 1.17913 60.4959 0.981563 60.3357 0.816225C59.9832 0.452452 59.4801 0.338791 59.0338 0.475242C58.9932 0.487581 58.9531 0.502097 58.9136 0.518645C58.7952 0.56829 58.6822 0.636516 58.579 0.723322C58.5447 0.752354 58.5114 0.783273 58.4793 0.81637L55.7864 3.5962L55.0229 2.80812C54.5102 2.27886 53.6792 2.27901 53.1665 2.80812C52.654 3.33723 52.654 4.19513 53.1665 4.72424C52.6538 4.19499 51.8229 4.19499 51.3101 4.72424C50.7976 5.25335 50.7976 6.11125 51.3101 6.64036L52.0737 7.42858L44.879 14.8554C45.2408 15.1356 45.5887 15.4439 45.9179 15.7836C46.2188 16.0944 46.4931 16.422 46.7458 16.761L53.9301 9.34485L54.6515 10.0895C54.9079 10.3542 55.2599 10.4698 55.5958 10.4698C55.9318 10.4698 56.2597 10.3459 56.5159 10.0814C57.0285 9.55229 57.0203 8.70266 56.5078 8.17355C56.7641 8.43818 57.1162 8.55358 57.4521 8.55358C57.788 8.55358 58.1159 8.42961 58.3722 8.16513C58.8847 7.63602 58.8766 6.78639 58.364 6.25728L57.6425 5.51246L60.3356 2.73249C60.688 2.36857 60.7982 1.84933 60.666 1.38859Z" fill="black"/>
<path d="M15.7884 43.2991L9.11169 52.2475L10.5936 53.7774L19.2625 46.8854L15.7884 43.2991Z" fill="black"/>
<path d="M66.7711 32.8808C66.0877 32.1754 64.9794 32.1753 64.296 32.8808L28.036 70.3105C27.3526 71.0159 27.3462 72.1534 28.0298 72.8591C28.3717 73.2119 28.8225 73.3914 29.2705 73.3914C29.7186 73.3914 30.1694 73.2182 30.5113 72.8654L32.3972 70.9187L35.6022 74.227C35.9304 74.5659 36.4019 74.7419 36.8661 74.7419C37.3303 74.7419 37.8019 74.5373 38.1302 74.1985L64.9583 46.5045C65.3212 46.13 65.5061 45.6102 65.4652 45.0823L64.8674 37.4008L66.7711 35.4356C67.4546 34.7303 67.4546 33.5864 66.7711 32.8808ZM36.8522 70.4077L34.872 68.3637L38.3372 64.7868L40.3173 66.8308L36.8522 70.4077ZM42.7924 64.2758L40.8123 62.232L61.617 40.7562L61.9116 44.5399L42.7924 64.2758Z" fill="black"/>
</svg>
