<svg width="64" height="46" viewBox="0 0 64 46" fill="none" xmlns="http://www.w3.org/2000/svg">
<path d="M0.436949 43.2069C16.5796 50.7504 70.5404 40.378 62.5837 21.2876C58.4765 11.4343 50.455 8.58447 41.5035 9.80282L37.1117 1.00108C34.1965 -0.286018 31.9089 0.0183559 30.5023 3.03899L32.2451 12.3108C16.5028 18.4969 0.979686 33.6301 0.436949 43.2069ZM11.0278 37.004C9.3661 36.4269 8.40297 34.8552 8.87536 33.495C9.34775 32.1347 11.0777 31.4983 12.7394 32.0754C14.4012 32.6525 15.3643 34.2242 14.8919 35.5844C14.4195 36.9447 12.6896 37.5811 11.0278 37.004ZM18.5754 30.1985C16.9136 29.6214 15.9505 28.0497 16.4229 26.6895C16.8953 25.3293 18.6252 24.6929 20.287 25.27C21.9487 25.8471 22.9118 27.4187 22.4394 28.779C21.967 30.1392 20.2371 30.7756 18.5754 30.1985ZM26.9654 25.4536C25.3036 24.8765 24.3405 23.3049 24.8129 21.9446C25.2853 20.5844 27.0153 19.948 28.677 20.5251C30.3387 21.1022 31.3019 22.6739 30.8295 24.0341C30.3571 25.3943 28.6271 26.0307 26.9654 25.4536ZM50.6849 14.7263C52.3467 15.3034 53.3098 16.8751 52.8374 18.2353C52.365 19.5956 50.635 20.232 48.9733 19.6549C47.3116 19.0778 46.3485 17.5061 46.8208 16.1459C47.2932 14.7856 49.0232 14.1492 50.6849 14.7263ZM44.9367 29.4435C46.9137 30.1301 48.0598 31.9987 47.4972 33.6188C46.9345 35.2389 44.8769 35.9949 42.9 35.3084C40.923 34.6218 39.7769 32.7532 40.3395 31.1331C40.9022 29.513 42.9598 28.757 44.9367 29.4435Z" fill="black"/>
</svg>
