<svg width="64" height="67" viewBox="0 0 64 67" fill="none" xmlns="http://www.w3.org/2000/svg">
<path d="M62.4895 26.9114C61.663 23.7982 60.0348 20.6352 57.2298 18.2361C54.4308 15.8312 50.5015 14.2842 45.4155 14.2065C43.8022 14.1791 42.5091 13.9713 41.4374 13.6517C39.5671 13.0859 38.3301 12.2053 37.1379 11.0511C36.2501 10.1862 35.4131 9.15374 34.4708 8.04654C33.0605 6.3937 31.3791 4.55824 28.8784 3.16879C26.3777 1.77465 23.1324 0.878222 18.7135 0.806852C8.94761 0.641755 0.903027 8.67661 0.741254 18.7573L0.427491 38.4134L0.353281 43.0624L0.124516 57.3936C0.0567796 61.6908 3.37298 65.2285 7.53776 65.3014L55.1523 66.1113C59.3172 66.1801 62.7444 62.7569 62.8139 58.4599L63.0427 44.1287L63.2209 32.9649C63.2502 31.0661 63.0432 28.9923 62.4895 26.9114ZM15.3129 61.4505L7.60132 61.3193C6.57859 61.3009 5.6773 60.8645 5.01685 60.1628C4.35916 59.4573 3.96626 58.5141 3.98224 57.4592L4.21101 43.128L4.25783 40.1949L12.2434 40.3307L12.045 52.7584C12.0295 53.7316 12.7816 54.536 13.7254 54.5521L15.4226 54.581L15.3129 61.4505ZM30.5403 61.7095L17.0486 61.48L17.1582 54.6105L19.0503 54.6427C19.9941 54.6587 20.7715 53.8804 20.787 52.9071L20.9854 40.4794L27.4708 40.5897L27.2724 53.0174C27.2569 53.9906 28.009 54.795 28.9528 54.8111L30.65 54.84L30.5403 61.7095ZM45.7685 61.9685L32.2768 61.739L32.3865 54.8695L34.2787 54.9017C35.2214 54.9177 35.9989 54.1394 36.0144 53.1661L36.2128 40.7384L42.6991 40.8487L42.5007 53.2764C42.4851 54.2496 43.2373 55.0541 44.1801 55.0701L45.8781 55.099L45.7684 61.9685L45.7685 61.9685ZM59.185 44.0631L58.9562 58.3943C58.9384 59.4491 58.5157 60.3784 57.8359 61.0612C57.1534 61.74 56.2387 62.1456 55.2159 62.1292L47.5042 61.998L47.6139 55.1285L49.507 55.1607C50.4506 55.1768 51.2281 54.3984 51.2437 53.4251L51.442 40.9974L59.2318 41.1299L59.185 44.0631Z" fill="black"/>
</svg>
